<svg version="1.0" xmlns="http://www.w3.org/2000/svg" viewBox="0 0 205.000000 200.000000" preserveAspectRatio="xMidYMid meet">

<g transform="translate(0.000000,215.000000) scale(0.0900000,-0.100000)"
fill="#000000" fill-opacity="0.8" stroke="none">
<path d="M1004 1765 c-132 -29 -260 -121 -324 -234 -28 -49 -39 -60 -55 -56
-68 17 -164 16 -239 -4 -98 -26 -153 -58 -233 -134 -268 -256 -165 -705 192
-840 l60 -22 753 -3 c843 -3 829 -4 932 66 72 49 125 127 147 216 39 161 -34
322 -185 404 l-53 29 -2 89 c-2 67 -8 101 -25 138 -45 99 -121 167 -224 203
-50 17 -166 19 -213 3 -32 -11 -36 -9 -90 34 -133 109 -281 146 -441 111z
m181 -66 c89 -16 160 -52 226 -116 l60 -57 47 14 c26 8 77 16 114 18 82 4 153
-23 213 -83 72 -72 90 -148 73 -309 -3 -27 1 -31 60 -55 115 -48 173 -116 193
-229 9 -50 8 -71 -6 -119 -27 -92 -74 -146 -165 -191 l-55 -27 -720 -3 c-495
-2 -740 1 -784 8 -94 16 -167 55 -237 124 -170 170 -175 423 -12 601 61 67
165 122 257 135 58 8 82 6 207 -17 31 -5 33 -3 64 61 57 121 173 213 303 241
79 17 91 17 162 4z"/>
<path d="M1186 1288 c-37 -57 -248 -529 -242 -543 8 -23 36 -30 51 -14 8 8 69
133 136 278 94 203 120 268 112 280 -16 25 -40 25 -57 -1z"/>
<path d="M631 1112 c-95 -54 -173 -102 -173 -107 0 -6 80 -55 178 -109 184
-102 205 -108 212 -58 3 16 -16 31 -100 77 -57 32 -115 65 -131 74 l-27 17
126 70 c69 38 129 75 132 83 6 17 -10 45 -29 48 -8 2 -92 -41 -188 -95z"/>
<path d="M1352 1198 c-29 -29 -12 -47 118 -119 l130 -73 -28 -17 c-15 -9 -73
-42 -130 -74 -84 -46 -103 -61 -100 -77 7 -51 28 -45 213 58 97 55 177 104
177 109 0 10 -340 204 -357 205 -6 0 -16 -5 -23 -12z"/>
</g>
</svg>