<?xml version="1.0" encoding="utf-8"?>
<svg viewBox="7.228 64.638 485.298 315.156" xmlns="http://www.w3.org/2000/svg">
  <g transform="matrix(2.39369, 0.011638, -0.011638, 2.39369, -1398.914959, -395.068982)" style="">
    <path stroke="rgb(255,0,0)" stroke-width="0" d="M 686.629 194.736 C 691.791 193.681 695.109 193.338 700.204 194.736 C 706.792 196.545 715.461 205.228 722.828 207.18 C 729.376 208.914 736.064 205.816 742.059 207.18 C 747.924 208.514 754.584 211.121 758.462 215.098 C 762.208 218.94 764.079 224.759 765.249 230.37 C 766.5 236.373 762.626 245.61 765.249 250.166 C 767.624 254.291 775.122 253.866 778.824 257.519 C 782.781 261.424 786.215 268.047 787.873 273.356 C 789.396 278.233 790.66 282.796 789.005 288.062 C 786.881 294.816 779.497 305.317 772.602 310.121 C 765.994 314.724 758.937 315.605 748.846 316.908 C 735.135 318.679 711.116 317.399 695.679 316.908 C 682.768 316.497 669.976 314.279 661.742 314.646 C 656.199 314.892 652.541 316.888 649.299 316.908 C 646.93 316.923 646.36 315.926 643.643 315.777 C 639.14 315.529 629.915 319.109 623.281 316.908 C 615.73 314.403 606.247 306.096 601.222 299.374 C 596.683 293.303 594.498 285.08 593.303 279.012 C 592.316 273.996 592.473 270.558 593.303 265.437 C 594.32 259.166 596.775 250.038 600.09 243.944 C 603.152 238.318 606.311 233.235 611.968 229.804 C 618.65 225.753 632.78 222.561 639.118 223.017 C 643.336 223.32 644.964 228.713 648.167 227.541 C 653.018 225.768 657.304 209.278 664.005 203.786 C 670.294 198.631 680.105 196.069 686.629 194.736 Z" style="stroke: rgb(129, 151, 57); stroke-width: 2px; fill: rgb(255, 255, 255);"/>
    <g transform="matrix(0.09, 0, 0, -0.1, 624.279358, 310.400665)" fill="#000000" fill-opacity="0.8" stroke="none">
      <g transform="matrix(1, 0, 0, 1, -393.832489, -565.61084)">
        <path d="M 1004 1765 C 872 1736 744 1644 680 1531 C 652 1482 641 1471 625 1475 C 557 1492 461 1491 386 1471 C 288 1445 233 1413 153 1337 C -115 1081 -12 632 345 497 L 405 475 L 1158 472 C 2001 469 1987 468 2090 538 C 2162 587 2215 665 2237 754 C 2276 915 2203 1076 2052 1158 L 1999 1187 L 1997 1276 C 1995 1343 1989 1377 1972 1414 C 1927 1513 1851 1581 1748 1617 C 1698 1634 1582 1636 1535 1620 C 1503 1609 1499 1611 1445 1654 C 1312 1763 1164 1800 1004 1765 Z M 1185 1699 C 1274 1683 1345 1647 1411 1583 L 1471 1526 L 1518 1540 C 1544 1548 1595 1556 1632 1558 C 1714 1562 1785 1535 1845 1475 C 1917 1403 1935 1327 1918 1166 C 1915 1139 1919 1135 1978 1111 C 2093 1063 2151 995 2171 882 C 2180 832 2179 811 2165 763 C 2138 671 2091 617 2000 572 L 1945 545 L 1225 542 C 730 540 485 543 441 550 C 347 566 274 605 204 674 C 34 844 29 1097 192 1275 C 253 1342 357 1397 449 1410 C 507 1418 531 1416 656 1393 C 687 1388 689 1390 720 1454 C 777 1575 893 1667 1023 1695 C 1102 1712 1114 1712 1185 1699 Z" style="stroke: rgb(218, 134, 85);"/>
        <path d="M 1186 1288 C 1149 1231 938 759 944 745 C 952 722 980 715 995 731 C 1003 739 1064 864 1131 1009 C 1225 1212 1251 1277 1243 1289 C 1227 1314 1203 1314 1186 1288 Z" style="stroke: rgb(218, 134, 85);"/>
        <path d="M 631 1112 C 536 1058 458 1010 458 1005 C 458 999 538 950 636 896 C 820 794 841 788 848 838 C 851 854 832 869 748 915 C 691 947 633 980 617 989 L 590 1006 L 716 1076 C 785 1114 845 1151 848 1159 C 854 1176 838 1204 819 1207 C 811 1209 727 1166 631 1112 Z" style="stroke: rgb(218, 134, 85);"/>
        <path d="M 1352 1198 C 1323 1169 1340 1151 1470 1079 L 1600 1006 L 1572 989 C 1557 980 1499 947 1442 915 C 1358 869 1339 854 1342 838 C 1349 787 1370 793 1555 896 C 1652 951 1732 1000 1732 1005 C 1732 1015 1392 1209 1375 1210 C 1369 1210 1359 1205 1352 1198 Z" style="stroke: rgb(218, 134, 85);"/>
      </g>
    </g>
  </g>
</svg>